<svg width="1337" height="475" viewBox="0 0 1337 475" fill="none" xmlns="http://www.w3.org/2000/svg">
<path d="M51.5 46.3094C53.9752 44.8803 57.0248 44.8803 59.5 46.3094L99.5644 69.4406C102.04 70.8697 103.564 73.5107 103.564 76.3688V122.631C103.564 125.489 102.04 128.13 99.5644 129.559L59.5 152.691C57.0248 154.12 53.9752 154.12 51.5 152.691L11.4356 129.559C8.96038 128.13 7.43559 125.489 7.43559 122.631V76.3688C7.43559 73.5107 8.96038 70.8697 11.4356 69.4406L51.5 46.3094Z" fill="#EBF2FC"/>
<path fill-rule="evenodd" clip-rule="evenodd" d="M1365.22 446.072C1365.22 450.265 1362.98 454.142 1359.34 456.242C1351.07 461.022 1336.17 469.621 1328.78 473.887C1327.87 474.409 1326.76 474.409 1325.84 473.887C1324.93 473.366 1324.38 472.389 1324.38 471.347C1324.38 462.88 1324.38 445.889 1324.38 436.416C1324.38 432.216 1326.62 428.339 1330.25 426.239C1338.52 421.466 1353.42 412.86 1360.81 408.594C1361.72 408.073 1362.84 408.073 1363.75 408.594C1364.66 409.123 1365.22 410.092 1365.22 411.142L1365.22 446.072Z" fill="#C8D8EC"/>
<path fill-rule="evenodd" clip-rule="evenodd" d="M1414.83 417.438C1414.83 421.638 1412.59 425.515 1408.96 427.615C1400.69 432.381 1385.82 440.972 1378.44 445.231C1377.53 445.76 1376.41 445.76 1375.5 445.231C1374.59 444.71 1374.03 443.74 1374.03 442.69C1374.03 434.224 1374.03 417.233 1374.03 407.76C1374.03 403.56 1376.27 399.683 1379.91 397.583C1388.17 392.817 1403.04 384.226 1410.43 379.967C1411.34 379.446 1412.46 379.446 1413.36 379.967C1414.27 380.488 1414.83 381.458 1414.83 382.508C1414.83 390.974 1414.83 407.958 1414.83 417.438Z" fill="#C8D8EC"/>
<path fill-rule="evenodd" clip-rule="evenodd" d="M1365.22 389.119C1365.22 393.311 1362.98 397.188 1359.34 399.288C1351.07 404.069 1336.17 412.667 1328.78 416.934C1327.87 417.455 1326.76 417.455 1325.84 416.934C1324.93 416.405 1324.38 415.435 1324.38 414.385C1324.38 405.86 1324.38 388.678 1324.38 379.132C1324.38 374.932 1326.62 371.055 1330.25 368.955C1338.52 364.182 1353.42 355.583 1360.81 351.317C1361.72 350.796 1362.84 350.796 1363.75 351.317C1364.66 351.846 1365.22 352.815 1365.22 353.865C1365.22 362.39 1365.22 379.573 1365.22 389.119Z" fill="#C8D8EC"/>
<path fill-rule="evenodd" clip-rule="evenodd" d="M1464.45 388.788C1464.45 392.988 1462.21 396.865 1458.58 398.965C1450.31 403.738 1435.43 412.33 1428.04 416.589C1427.13 417.117 1426.01 417.117 1425.1 416.589C1424.2 416.067 1423.64 415.098 1423.64 414.048C1423.64 405.581 1423.64 388.597 1423.64 379.118C1423.64 374.925 1425.87 371.048 1429.51 368.948C1437.78 364.175 1452.66 355.584 1460.04 351.317C1460.95 350.796 1462.07 350.796 1462.98 351.317C1463.89 351.846 1464.45 352.815 1464.45 353.865C1464.45 362.332 1464.45 379.316 1464.45 388.788Z" fill="#C8D8EC"/>
<path fill-rule="evenodd" clip-rule="evenodd" d="M1414.83 360.46C1414.83 364.66 1412.59 368.537 1408.96 370.637C1400.69 375.41 1385.82 383.994 1378.44 388.253C1377.53 388.781 1376.41 388.781 1375.5 388.253C1374.59 387.731 1374.03 386.762 1374.03 385.712C1374.03 377.187 1374.03 360.004 1374.03 350.459C1374.03 346.258 1376.27 342.381 1379.91 340.281C1388.17 335.516 1403.04 326.932 1410.43 322.673C1411.34 322.144 1412.46 322.144 1413.36 322.673C1414.27 323.194 1414.83 324.164 1414.83 325.214C1414.83 333.739 1414.83 350.914 1414.83 360.46Z" fill="#C8D8EC"/>
<path fill-rule="evenodd" clip-rule="evenodd" d="M1274.72 289.972C1274.72 285.772 1276.96 281.895 1280.6 279.795C1288.87 275.022 1303.77 266.423 1311.16 262.157C1312.07 261.629 1313.18 261.629 1314.09 262.157C1315.01 262.679 1315.56 263.648 1315.56 264.698C1315.56 273.289 1315.56 290.677 1315.56 300.296C1315.56 304.495 1313.32 308.374 1309.69 310.472C1301.42 315.249 1286.52 323.849 1279.13 328.116C1278.22 328.64 1277.1 328.64 1276.19 328.116C1275.28 327.591 1274.72 326.621 1274.72 325.572C1274.72 316.979 1274.72 299.591 1274.72 289.972Z" fill="#C8D8EC"/>
<path fill-rule="evenodd" clip-rule="evenodd" d="M1464.45 331.802C1464.45 336.002 1462.21 339.879 1458.58 341.979C1450.31 346.752 1435.43 355.344 1428.04 359.61C1427.13 360.131 1426.01 360.131 1425.1 359.61C1424.2 359.081 1423.64 358.112 1423.64 357.062C1423.64 348.537 1423.64 331.362 1423.64 321.816C1423.64 317.623 1425.88 313.742 1429.51 311.644C1437.78 306.871 1452.66 298.282 1460.04 294.02C1460.95 293.496 1462.07 293.496 1462.98 294.02C1463.89 294.545 1464.45 295.514 1464.45 296.563C1464.45 305.089 1464.45 322.264 1464.45 331.802Z" fill="#C8D8EC"/>
<path fill-rule="evenodd" clip-rule="evenodd" d="M1414.83 303.163C1414.83 307.361 1412.59 311.24 1408.96 313.338C1400.69 318.108 1385.82 326.691 1378.44 330.95C1377.53 331.479 1376.41 331.479 1375.5 330.95C1374.59 330.429 1374.03 329.46 1374.03 328.41C1374.03 319.818 1374.03 302.424 1374.03 292.803C1374.03 288.606 1376.27 284.727 1379.91 282.629C1388.17 277.857 1403.04 269.272 1410.43 265.009C1411.34 264.484 1412.46 264.484 1413.36 265.009C1414.27 265.534 1414.83 266.504 1414.83 267.553C1414.83 276.147 1414.83 293.541 1414.83 303.163Z" fill="#C8D8EC"/>
<path fill-rule="evenodd" clip-rule="evenodd" d="M1309.67 426.253C1313.31 428.346 1315.55 432.23 1315.55 436.423C1315.55 445.903 1315.55 462.887 1315.55 471.353C1315.55 472.396 1314.99 473.372 1314.08 473.894C1313.17 474.415 1312.05 474.415 1311.14 473.894C1303.76 469.628 1288.87 461.036 1280.61 456.263C1276.98 454.163 1274.74 450.286 1274.74 446.086C1274.74 436.614 1274.74 419.63 1274.74 411.163C1274.74 410.113 1275.3 409.144 1276.21 408.623C1277.11 408.094 1278.23 408.094 1279.14 408.623C1286.52 412.881 1301.41 421.48 1309.67 426.253Z" fill="#A6B7CA"/>
<path fill-rule="evenodd" clip-rule="evenodd" d="M1260.06 397.614C1263.69 399.707 1265.93 403.591 1265.93 407.784C1265.93 417.264 1265.93 434.248 1265.93 442.715C1265.93 443.765 1265.37 444.734 1264.46 445.255C1263.55 445.777 1262.43 445.777 1261.53 445.255C1254.14 440.996 1239.27 432.405 1231.01 427.64C1227.37 425.539 1225.13 421.662 1225.13 417.462C1225.13 407.99 1225.13 390.998 1225.13 382.539C1225.13 381.482 1225.69 380.52 1226.6 379.991C1227.51 379.47 1228.63 379.47 1229.54 379.991C1236.92 384.25 1251.79 392.841 1260.06 397.614Z" fill="#A6B7CA"/>
<path fill-rule="evenodd" clip-rule="evenodd" d="M1309.67 368.972C1313.31 371.072 1315.55 374.949 1315.55 379.149C1315.55 388.688 1315.55 405.863 1315.55 414.388C1315.55 415.438 1314.99 416.407 1314.08 416.928C1313.17 417.457 1312.05 417.457 1311.14 416.928C1303.76 412.67 1288.87 404.078 1280.61 399.298C1276.98 397.205 1274.74 393.328 1274.74 389.128C1274.74 379.582 1274.74 362.415 1274.74 353.89C1274.74 352.84 1275.3 351.87 1276.21 351.341C1277.11 350.82 1278.23 350.82 1279.14 351.341C1286.52 355.608 1301.41 364.199 1309.67 368.972Z" fill="#A6B7CA"/>
<path fill-rule="evenodd" clip-rule="evenodd" d="M1175.47 353.865C1175.47 352.815 1176.03 351.846 1176.94 351.317C1177.84 350.796 1178.97 350.796 1179.88 351.317C1187.26 355.584 1202.16 364.189 1210.44 368.962C1214.07 371.062 1216.31 374.939 1216.31 379.14C1216.31 388.612 1216.31 405.596 1216.31 414.063C1216.31 415.113 1215.75 416.082 1214.84 416.603C1213.93 417.132 1212.81 417.132 1211.91 416.603C1204.51 412.337 1189.61 403.738 1181.35 398.965C1177.71 396.865 1175.47 392.988 1175.47 388.788C1175.47 379.316 1175.47 362.332 1175.47 353.865Z" fill="#A6B7CA"/>
<path fill-rule="evenodd" clip-rule="evenodd" d="M1260.06 340.313C1263.69 342.413 1265.93 346.29 1265.93 350.49L1265.93 385.729C1265.93 386.779 1265.37 387.748 1264.46 388.269C1263.55 388.798 1262.43 388.798 1261.53 388.269C1254.14 384.011 1239.27 375.427 1231.01 370.654C1227.37 368.554 1225.13 364.677 1225.13 360.477L1225.13 325.238C1225.13 324.188 1225.69 323.219 1226.6 322.697C1227.51 322.168 1228.63 322.168 1229.54 322.697C1236.92 326.956 1251.79 335.547 1260.06 340.313Z" fill="#A6B7CA"/>
<path fill-rule="evenodd" clip-rule="evenodd" d="M1330.26 310.486C1326.63 308.387 1324.39 304.509 1324.39 300.31C1324.39 290.691 1324.39 273.288 1324.39 264.69C1324.39 263.64 1324.95 262.67 1325.86 262.149C1326.77 261.62 1327.89 261.62 1328.8 262.149C1336.18 266.415 1351.07 275.007 1359.33 279.779C1362.96 281.879 1365.2 285.757 1365.2 289.949C1365.2 299.576 1365.2 316.976 1365.2 325.571C1365.2 326.621 1364.64 327.591 1363.73 328.116C1362.83 328.64 1361.71 328.64 1360.8 328.116C1353.42 323.851 1338.53 315.259 1330.26 310.486Z" fill="#A6B7CA"/>
<path fill-rule="evenodd" clip-rule="evenodd" d="M1210.44 311.664C1214.07 313.763 1216.31 317.645 1216.31 321.837C1216.31 331.383 1216.31 348.551 1216.31 357.076C1216.31 358.126 1215.75 359.095 1214.84 359.624C1213.93 360.145 1212.81 360.145 1211.91 359.624C1204.51 355.358 1189.61 346.752 1181.35 341.979C1177.71 339.879 1175.47 336.002 1175.47 331.802C1175.47 322.263 1175.47 305.09 1175.47 296.565C1175.47 295.516 1176.03 294.546 1176.94 294.022C1177.84 293.497 1178.97 293.497 1179.88 294.022C1187.26 298.288 1202.16 306.889 1210.44 311.664Z" fill="#A6B7CA"/>
<path fill-rule="evenodd" clip-rule="evenodd" d="M1260.06 282.652C1263.69 284.75 1265.93 288.629 1265.93 292.827C1265.93 302.45 1265.93 319.849 1265.93 328.448C1265.93 329.498 1265.37 330.467 1264.46 330.989C1263.55 331.517 1262.43 331.517 1261.53 330.989C1254.14 326.73 1239.27 318.139 1231.01 313.37C1227.37 311.272 1225.13 307.393 1225.13 303.195C1225.13 293.572 1225.13 276.172 1225.13 267.576C1225.13 266.527 1225.69 265.557 1226.6 265.032C1227.51 264.507 1228.63 264.507 1229.54 265.032C1236.92 269.295 1251.79 277.881 1260.06 282.652Z" fill="#A6B7CA"/>
<path fill-rule="evenodd" clip-rule="evenodd" d="M1257.17 223.654C1258.08 224.179 1258.64 225.148 1258.64 226.198C1258.64 227.247 1258.08 228.217 1257.17 228.741C1249.78 233.007 1226.63 246.378 1226.63 246.378L1226.61 206.01C1226.61 206.01 1249.78 219.387 1257.17 223.654Z" fill="#A6B7CA"/>
<path fill-rule="evenodd" clip-rule="evenodd" d="M1283.58 340.831C1282.68 340.306 1282.12 339.336 1282.12 338.287C1282.12 337.238 1282.68 336.268 1283.58 335.743C1290.97 331.477 1305.86 322.882 1314.13 318.106C1317.77 316.008 1322.25 316.008 1325.88 318.106C1334.15 322.88 1349.03 331.472 1356.41 335.736C1357.32 336.26 1357.88 337.23 1357.88 338.28C1357.88 339.329 1357.32 340.299 1356.41 340.823C1349.03 345.089 1334.14 353.685 1325.87 358.459C1322.23 360.558 1317.75 360.558 1314.12 358.459C1305.85 353.687 1290.97 345.095 1283.58 340.831Z" fill="#DDE9F8"/>
<path fill-rule="evenodd" clip-rule="evenodd" d="M1181.35 284.7L1216.31 264.18C1216.31 264.18 1216.31 291.203 1216.31 299.799C1216.31 300.849 1215.75 301.818 1214.84 302.343C1213.93 302.867 1212.81 302.867 1211.91 302.343C1204.51 298.076 1181.35 284.7 1181.35 284.7Z" fill="#DDE9F8"/>
<path fill-rule="evenodd" clip-rule="evenodd" d="M1306.79 252.308C1307.69 252.832 1308.25 253.802 1308.25 254.852C1308.25 255.901 1307.69 256.87 1306.79 257.395C1299.39 261.661 1284.51 270.257 1276.24 275.031C1272.6 277.13 1268.12 277.13 1264.49 275.031C1256.22 270.26 1241.35 261.674 1233.97 257.412C1233.06 256.887 1232.5 255.918 1232.5 254.869C1232.5 253.818 1233.06 252.849 1233.97 252.324C1241.36 248.059 1256.24 239.463 1264.51 234.688C1268.15 232.589 1272.63 232.589 1276.26 234.688C1284.53 239.459 1299.4 248.045 1306.79 252.308Z" fill="#DDE9F8"/>
<path fill-rule="evenodd" clip-rule="evenodd" d="M1406.02 252.294C1406.93 252.819 1407.49 253.788 1407.49 254.837C1407.49 255.887 1406.93 256.857 1406.02 257.381C1398.63 261.646 1383.74 270.243 1375.47 275.017C1371.84 277.116 1367.36 277.116 1363.73 275.017C1355.46 270.244 1340.58 261.652 1333.19 257.388C1332.28 256.863 1331.72 255.894 1331.72 254.845C1331.72 253.795 1332.28 252.825 1333.19 252.301C1340.58 248.035 1355.47 239.439 1363.74 234.664C1367.37 232.565 1371.85 232.565 1375.49 234.664C1383.75 239.438 1398.64 248.03 1406.02 252.294Z" fill="#DDE9F8"/>
<path fill-rule="evenodd" clip-rule="evenodd" d="M1356.4 223.634C1357.31 224.159 1357.87 225.128 1357.87 226.177C1357.87 227.227 1357.31 228.196 1356.4 228.721C1349.02 232.987 1334.13 241.583 1325.86 246.358C1322.22 248.456 1317.74 248.456 1314.11 246.358C1305.84 241.586 1290.97 233 1283.59 228.738C1282.68 228.213 1282.12 227.243 1282.12 226.194C1282.12 225.145 1282.68 224.175 1283.59 223.65C1290.98 219.385 1305.86 210.789 1314.14 206.014C1317.77 203.916 1322.25 203.916 1325.89 206.014C1334.15 210.786 1349.02 219.372 1356.4 223.634Z" fill="#DDE9F8"/>
<path fill-rule="evenodd" clip-rule="evenodd" d="M1306.79 195.008C1307.69 195.532 1308.25 196.502 1308.25 197.551C1308.25 198.601 1307.69 199.571 1306.79 200.095C1299.39 204.36 1284.51 212.957 1276.23 217.731C1272.6 219.83 1268.12 219.83 1264.48 217.731C1256.21 212.955 1241.32 204.355 1233.93 200.088C1233.02 199.563 1232.46 198.593 1232.46 197.544C1232.46 196.495 1233.02 195.525 1233.93 195C1241.32 190.735 1256.21 182.139 1264.48 177.364C1268.11 175.266 1272.59 175.266 1276.22 177.364C1284.49 182.141 1299.39 190.741 1306.79 195.008Z" fill="#DDE9F8"/>
<path fill-rule="evenodd" clip-rule="evenodd" d="M1406.02 195.008C1406.93 195.533 1407.49 196.503 1407.49 197.552C1407.49 198.601 1406.93 199.571 1406.02 200.096C1398.64 204.358 1383.77 212.944 1375.5 217.715C1371.87 219.814 1367.39 219.814 1363.75 217.715C1355.49 212.944 1340.62 204.358 1333.24 200.096C1332.33 199.571 1331.77 198.601 1331.77 197.552C1331.77 196.503 1332.33 195.533 1333.24 195.008C1340.62 190.746 1355.49 182.16 1363.75 177.388C1367.39 175.29 1371.87 175.29 1375.5 177.388C1383.77 182.16 1398.64 190.746 1406.02 195.008Z" fill="#DDE9F8"/>
<path fill-rule="evenodd" clip-rule="evenodd" d="M1356.4 166.358C1357.31 166.883 1357.87 167.852 1357.87 168.902C1357.87 169.952 1357.31 170.921 1356.4 171.446C1349.02 175.708 1334.15 184.294 1325.89 189.065C1322.25 191.164 1317.77 191.164 1314.14 189.065C1305.86 184.289 1290.96 175.689 1283.58 171.422C1282.67 170.897 1282.11 169.927 1282.11 168.878C1282.11 167.829 1282.67 166.859 1283.58 166.334C1290.96 162.072 1305.83 153.486 1314.1 148.715C1317.73 146.616 1322.21 146.616 1325.84 148.715C1334.12 153.491 1349.01 162.091 1356.4 166.358Z" fill="#DDE9F8"/>
<path fill-rule="evenodd" clip-rule="evenodd" d="M1125.99 199.584C1130.07 201.938 1132.58 206.29 1132.58 211C1132.58 221.791 1132.58 241.314 1132.58 250.96C1132.58 252.138 1131.96 253.225 1130.94 253.81C1129.91 254.403 1128.66 254.403 1127.64 253.81C1119.35 249.024 1102.66 239.386 1093.39 234.032C1089.31 231.676 1086.8 227.327 1086.8 222.623C1086.8 211.824 1086.8 192.304 1086.8 182.661C1086.8 181.483 1087.42 180.396 1088.45 179.807C1089.46 179.219 1090.72 179.219 1091.74 179.807C1100.02 184.591 1116.72 194.23 1125.99 199.584Z" fill="#30B01E"/>
<path fill-rule="evenodd" clip-rule="evenodd" d="M1188.29 222.596C1188.29 227.308 1185.78 231.657 1181.7 234.013C1172.42 239.368 1155.7 249.014 1147.42 253.8C1146.39 254.393 1145.14 254.393 1144.12 253.8C1143.1 253.215 1142.47 252.128 1142.47 250.95C1142.47 241.312 1142.47 221.805 1142.47 211.014C1142.47 206.304 1144.99 201.953 1149.06 199.599C1158.34 194.24 1175.06 184.592 1183.35 179.805C1184.37 179.217 1185.62 179.217 1186.64 179.805C1187.66 180.394 1188.29 181.482 1188.29 182.659C1188.29 192.298 1188.29 211.805 1188.29 222.596Z" fill="#47CF34"/>
<path fill-rule="evenodd" clip-rule="evenodd" d="M1178.38 165.542C1179.4 166.131 1180.03 167.219 1180.03 168.396C1180.03 169.573 1179.4 170.661 1178.38 171.249C1170.09 176.035 1153.39 185.678 1144.11 191.035C1140.03 193.389 1135.01 193.389 1130.93 191.035C1121.66 185.68 1104.96 176.041 1096.68 171.258C1095.66 170.67 1095.03 169.581 1095.03 168.404C1095.03 167.227 1095.66 166.139 1096.68 165.551C1104.97 160.765 1121.67 151.122 1130.95 145.766C1135.03 143.411 1140.05 143.411 1144.13 145.766C1153.4 151.12 1170.1 160.759 1178.38 165.542Z" fill="#77F565"/>
<path fill-rule="evenodd" clip-rule="evenodd" d="M947.682 36.499C950.354 38.0708 952 40.9758 952 44.1206C952 51.3253 952 64.3598 952 70.8C952 71.5865 951.59 72.3125 950.92 72.703C950.251 73.099 949.431 73.099 948.761 72.703C943.331 69.5076 932.39 63.0729 926.318 59.498C923.646 57.9251 922 55.0212 922 51.8808C922 44.6706 922 31.6383 922 25.2002C922 24.4137 922.41 23.6878 923.08 23.2945C923.743 22.9018 924.569 22.9018 925.239 23.2945C930.663 26.4888 941.604 32.9241 947.682 36.499Z" fill="#C1CDDA"/>
<path fill-rule="evenodd" clip-rule="evenodd" d="M989 51.8672C989 55.0135 987.355 57.9177 984.684 59.4908C978.607 63.0661 967.663 69.5072 962.236 72.703C961.568 73.099 960.748 73.099 960.079 72.703C959.41 72.3124 959 71.5864 959 70.7998C959 64.3643 959 51.3392 959 44.1336C959 40.9884 960.645 38.0831 963.315 36.5111C969.392 32.933 980.335 26.4909 985.764 23.2946C986.431 22.9018 987.254 22.9018 987.921 23.2945C988.589 23.6878 989 24.4139 989 25.1999C989 31.6365 989 44.6616 989 51.8672Z" fill="#D9E4F2"/>
<path fill-rule="evenodd" clip-rule="evenodd" d="M982.895 14.5673C983.578 14.9656 984 15.7009 984 16.4969C984 17.2929 983.578 18.0288 982.895 18.4265C977.337 21.6629 966.134 28.1836 959.914 31.806C957.179 33.398 953.809 33.398 951.075 31.806C944.854 28.1847 933.657 21.6668 928.105 18.4321C927.42 18.0344 927 17.2985 927 16.5025C927 15.7065 927.42 14.9707 928.105 14.573C933.662 11.3371 944.86 4.81587 951.086 1.19401C953.82 -0.398001 957.19 -0.398005 959.925 1.194C966.145 4.81474 977.338 11.3326 982.895 14.5673Z" fill="#E7F0FA"/>
<path fill-rule="evenodd" clip-rule="evenodd" d="M740.386 392.739C743.86 394.688 746 398.29 746 402.189C746 411.123 746 427.286 746 435.272C746 436.247 745.467 437.148 744.597 437.632C743.727 438.123 742.66 438.123 741.79 437.632C734.731 433.669 720.508 425.69 712.614 421.258C709.14 419.307 707 415.706 707 411.812C707 402.871 707 386.711 707 378.728C707 377.753 707.533 376.853 708.403 376.365C709.266 375.878 710.34 375.878 711.21 376.365C718.262 380.326 732.485 388.306 740.386 392.739Z" fill="#30B01E"/>
<path fill-rule="evenodd" clip-rule="evenodd" d="M792 411.795C792 415.697 789.916 419.298 786.533 421.249C778.835 425.682 764.973 433.669 758.1 437.632C757.252 438.123 756.214 438.123 755.367 437.632C754.519 437.147 754 436.247 754 435.272C754 427.292 754 411.141 754 402.206C754 398.306 756.084 394.703 759.466 392.754C767.163 388.317 781.024 380.329 787.9 376.365C788.746 375.878 789.788 375.878 790.633 376.365C791.479 376.853 792 377.753 792 378.728C792 386.709 792 402.86 792 411.795Z" fill="#47CF34"/>
<path fill-rule="evenodd" clip-rule="evenodd" d="M783.624 364.099C784.475 364.594 785 365.507 785 366.496C785 367.485 784.475 368.399 783.624 368.894C776.7 372.915 762.746 381.016 754.998 385.517C751.592 387.494 747.394 387.494 743.988 385.517C736.24 381.017 722.292 372.919 715.376 368.901C714.523 368.406 714 367.492 714 366.503C714 365.514 714.523 364.6 715.376 364.106C722.299 360.086 736.247 351.983 744.002 347.483C747.408 345.506 751.605 345.506 755.011 347.483C762.76 351.982 776.702 360.08 783.624 364.099Z" fill="#77F565"/>
<path fill-rule="evenodd" clip-rule="evenodd" d="M1029.34 279.619C1031.77 281.021 1033.27 283.613 1033.27 286.418C1033.27 292.846 1033.27 304.474 1033.27 310.219C1033.27 310.921 1032.9 311.569 1032.29 311.917C1031.68 312.27 1030.93 312.27 1030.33 311.917C1025.39 309.067 1015.44 303.326 1009.92 300.137C1007.5 298.734 1006 296.143 1006 293.341C1006 286.909 1006 275.283 1006 269.539C1006 268.838 1006.37 268.19 1006.98 267.839C1007.58 267.489 1008.34 267.489 1008.94 267.839C1013.87 270.689 1023.82 276.43 1029.34 279.619Z" fill="#287EE7"/>
<path fill-rule="evenodd" clip-rule="evenodd" d="M1066.45 293.325C1066.45 296.132 1064.95 298.722 1062.52 300.126C1057 303.315 1047.04 309.06 1042.1 311.911C1041.5 312.264 1040.75 312.264 1040.14 311.911C1039.53 311.563 1039.16 310.915 1039.16 310.213C1039.16 304.473 1039.16 292.854 1039.16 286.427C1039.16 283.622 1040.66 281.03 1043.09 279.628C1048.61 276.436 1058.57 270.69 1063.5 267.839C1064.11 267.488 1064.86 267.488 1065.47 267.839C1066.07 268.189 1066.45 268.837 1066.45 269.538C1066.45 275.28 1066.45 286.898 1066.45 293.325Z" fill="#57A3FF"/>
<path fill-rule="evenodd" clip-rule="evenodd" d="M1060.55 259.343C1061.15 259.694 1061.53 260.342 1061.53 261.043C1061.53 261.744 1061.15 262.392 1060.55 262.742C1055.61 265.593 1045.66 271.337 1040.14 274.527C1037.71 275.929 1034.72 275.929 1032.29 274.527C1026.76 271.338 1016.82 265.597 1011.89 262.747C1011.28 262.397 1010.9 261.749 1010.9 261.048C1010.9 260.347 1011.28 259.699 1011.89 259.348C1016.82 256.498 1026.77 250.754 1032.3 247.564C1034.73 246.162 1037.72 246.162 1040.15 247.564C1045.67 250.753 1055.61 256.494 1060.55 259.343Z" fill="#9FCDFF"/>
</svg>
